BUNKBOYZ RELEASED
=================

General
Complete name                    : G-Force.avi
Format                           : AVI
Format/Info                      : Audio Video Interleave
File size                        : 767 MiB
Duration                         : 1h 28mn
Overall bit rate                 : 1 215 Kbps
Writing application              : Lavf51.12.1

Video
Format                           : xvid
Codec ID                         : xvid
Duration                         : 1h 28mn
Bit rate                         : 1 074 Kbps
Width                            : 720 pixels
Height                           : 306 pixels
Display aspect ratio             : 2.35:1
Frame rate                       : 29.970 fps
Bits/(Pixel*Frame)               : 0.163
Stream size                      : 678 MiB (88%)

Audio
ID                               : 1
Format                           : MPEG Audio
Format version                   : Version 1
Format profile                   : Layer 3
Format_Settings_Mode             : Joint stereo
Format_Settings_ModeExtension    : MS Stereo
Codec ID                         : 55
Codec ID/Hint                    : MP3
Duration                         : 1h 28mn
Bit rate mode                    : Constant
Bit rate                         : 128 Kbps
Channel(s)                       : 2 channels
Sampling rate                    : 44.1 KHz
Stream size                      : 80.8 MiB (11%)
Alignment                        : Aligned on interleaves
Interleave, duration             : 26 ms (0.78 video frame)
Writing library                  : LAME3.97


Movies Screenshots : 
http://postimg.com/image/12000/11984.jpg 
http://postimg.com/image/12000/11988.jpg 
http://postimg.com/image/12000/11985.jpg 
http://postimg.com/image/12000/11986.jpg 
http://postimg.com/image/12000/11990.jpg 
http://postimg.com/image/12000/11987.jpg

Movies Thumbnail/Screencaps : 
http://postimg.com/image/12000/11989.jpg